<svg width="89" height="122" viewBox="0 0 89 122" fill="none" xmlns="http://www.w3.org/2000/svg">
<mask id="path-1-inside-1_4_8" fill="white">
<path d="M64.5 66L52.5 74.5L72 90L64.5 66Z"/>
</mask>
<path d="M52.5 74.5L39.7836 56.5475L15.8693 73.4867L38.8106 91.7221L52.5 74.5ZM64.5 66L85.4986 59.438L76.4738 30.5586L51.7836 48.0475L64.5 66ZM72 90L58.3106 107.222L114.352 151.767L92.9986 83.438L72 90ZM65.2164 92.4525L77.2164 83.9525L51.7836 48.0475L39.7836 56.5475L65.2164 92.4525ZM43.5014 72.562L51.0014 96.562L92.9986 83.438L85.4986 59.438L43.5014 72.562ZM85.6894 72.7779L66.1894 57.2779L38.8106 91.7221L58.3106 107.222L85.6894 72.7779Z" fill="white" mask="url(#path-1-inside-1_4_8)"/>
<mask id="path-3-inside-2_4_8" fill="white">
<path d="M34 34L44.5 0L55 34L89 35L17 90L27 56L0 35L34 34Z"/>
</mask>
<path d="M44.5 0L999.975 -295.073L44.5 -3388.99L-910.975 -295.073L44.5 0ZM34 34L63.3991 1033.57L778.405 1012.54L989.475 329.073L34 34ZM0 35L-29.3991 -964.568L-2808.87 -882.818L-613.941 824.352L0 35ZM27 56L986.366 338.166L1178.54 -315.221L640.941 -733.352L27 56ZM17 90L-942.366 -192.166L-1804.77 2740.01L624.04 884.671L17 90ZM89 35L696.04 829.671L2936.36 -881.686L118.399 -964.568L89 35ZM55 34L-900.475 329.073L-689.405 1012.54L25.6009 1033.57L55 34ZM-910.975 -295.073L-921.475 -261.073L989.475 329.073L999.975 295.073L-910.975 -295.073ZM4.60095 -965.568L-29.3991 -964.568L29.3991 1034.57L63.3991 1033.57L4.60095 -965.568ZM-613.941 824.352L-586.941 845.352L640.941 -733.352L613.941 -754.352L-613.941 824.352ZM-932.366 -226.166L-942.366 -192.166L976.366 372.166L986.366 338.166L-932.366 -226.166ZM624.04 884.671L696.04 829.671L-518.04 -759.671L-590.04 -704.671L624.04 884.671ZM118.399 -964.568L84.3991 -965.568L25.6009 1033.57L59.6009 1034.57L118.399 -964.568ZM1010.47 -261.073L999.975 -295.073L-910.975 295.073L-900.475 329.073L1010.47 -261.073Z" fill="white" mask="url(#path-3-inside-2_4_8)"/>
<rect x="77" y="35" width="12" height="64" fill="white"/>
<rect x="41" y="92" width="12" height="7" fill="white"/>
<path d="M89 98C89 101.152 88.3792 104.273 87.1731 107.184C85.967 110.096 84.1992 112.742 81.9706 114.971C79.742 117.199 77.0962 118.967 74.1844 120.173C71.2726 121.379 68.1517 122 65 122C61.8483 122 58.7274 121.379 55.8156 120.173C52.9038 118.967 50.258 117.199 48.0294 114.971C45.8008 112.742 44.033 110.096 42.8269 107.184C41.6208 104.273 41 101.152 41 98L53 98C53 99.5759 53.3104 101.136 53.9134 102.592C54.5165 104.048 55.4004 105.371 56.5147 106.485C57.629 107.6 58.9519 108.483 60.4078 109.087C61.8637 109.69 63.4241 110 65 110C66.5759 110 68.1363 109.69 69.5922 109.087C71.0481 108.483 72.371 107.6 73.4853 106.485C74.5996 105.371 75.4835 104.048 76.0866 102.592C76.6896 101.136 77 99.5759 77 98H89Z" fill="white"/>
</svg>
