<svg width="200" height="275" viewBox="0 0 200 275" fill="none" xmlns="http://www.w3.org/2000/svg">
<path d="M140.451 174.208L133.319 168.724L137.708 165.717L140.451 174.208Z" stroke="#D70015" stroke-width="22"/>
<mask id="path-2-inside-1_4_8" fill="white">
<path d="M76.4043 76.4043L99.9997 0L123.595 76.4043L199.999 78.6515L38.2021 202.247L60.674 125.842L0 78.6515L76.4043 76.4043Z"/>
</mask>
<path d="M99.9997 0L1055.47 -295.073L99.9997 -3388.99L-855.475 -295.073L99.9997 0ZM76.4043 76.4043L105.803 1075.97L820.809 1054.94L1031.88 371.477L76.4043 76.4043ZM0 78.6515L-29.3991 -920.916L-2808.87 -839.167L-613.941 868.004L0 78.6515ZM60.674 125.842L1020.04 408.009L1212.21 -245.378L674.615 -663.51L60.674 125.842ZM38.2021 202.247L-921.163 -79.9197L-1783.57 2852.26L645.243 996.918L38.2021 202.247ZM199.999 78.6515L807.04 873.322L3047.36 -838.035L229.398 -920.916L199.999 78.6515ZM123.595 76.4043L-831.88 371.477L-620.809 1054.94L94.1961 1075.97L123.595 76.4043ZM-855.475 -295.073L-879.07 -218.669L1031.88 371.477L1055.47 295.073L-855.475 -295.073ZM47.0052 -923.163L-29.3991 -920.916L29.3991 1078.22L105.803 1075.97L47.0052 -923.163ZM-613.941 868.004L-553.267 915.195L674.615 -663.51L613.941 -710.701L-613.941 868.004ZM-898.692 -156.324L-921.163 -79.9197L997.568 484.413L1020.04 408.009L-898.692 -156.324ZM645.243 996.918L807.04 873.322L-407.041 -716.02L-568.838 -592.424L645.243 996.918ZM229.398 -920.916L152.994 -923.163L94.1961 1075.97L170.6 1078.22L229.398 -920.916ZM1079.07 -218.669L1055.47 -295.073L-855.475 295.073L-831.88 371.477L1079.07 -218.669Z" fill="#D70015" mask="url(#path-2-inside-1_4_8)"/>
<rect x="173.033" y="78.6516" width="26.9662" height="143.82" fill="#D70015"/>
<rect x="92.1343" y="206.741" width="26.9662" height="15.7303" fill="#D70015"/>
<path d="M199.999 220.224C199.999 227.306 198.604 234.32 195.894 240.863C193.183 247.406 189.211 253.352 184.203 258.36C179.195 263.368 173.249 267.341 166.706 270.051C160.162 272.761 153.149 274.156 146.067 274.156C138.984 274.156 131.971 272.761 125.428 270.051C118.884 267.341 112.939 263.368 107.931 258.36C102.923 253.352 98.95 247.406 96.2396 240.863C93.5293 234.32 92.1343 227.306 92.1343 220.224H119.1C119.1 223.765 119.798 227.272 121.153 230.543C122.508 233.815 124.495 236.788 126.999 239.292C129.503 241.796 132.475 243.782 135.747 245.137C139.019 246.493 142.525 247.19 146.067 247.19C149.608 247.19 153.115 246.493 156.386 245.137C159.658 243.782 162.631 241.796 165.135 239.292C167.639 236.788 169.625 233.815 170.98 230.543C172.335 227.272 173.033 223.765 173.033 220.224H199.999Z" fill="#D70015"/>
</svg>
