<svg width="50" height="56" viewBox="0 0 50 56" fill="none" xmlns="http://www.w3.org/2000/svg">
<path d="M7.69357 56C5.10859 56 2.615 56 0.0635992 56C0.0464173 55.7314 0.018608 55.4993 0.0185746 55.2672C0.0165177 40.5556 0.0228767 25.8441 5.27874e-06 11.1325C-0.00124421 10.3291 0.218983 10.094 1.0261 10.1038C4.49788 10.146 7.97047 10.1218 11.4428 10.1218C11.7328 10.1218 12.0228 10.1218 12.4312 10.1218C13.2693 6.61701 15.2194 3.70079 18.4754 1.70969C20.9842 0.175461 23.7569 -0.22467 26.5734 0.10999C32.1291 0.770132 36.3077 5.15278 37.171 10.1151C41.3208 10.1151 45.4822 10.1151 49.7333 10.1151C49.7333 10.5004 49.7333 10.8251 49.7333 11.1498C49.733 21.1098 49.7837 31.0702 49.6986 41.0295C49.6759 43.6816 48.6515 46.1132 47.2345 48.3841C46.1849 50.0661 44.8347 51.4299 43.3048 52.6352C41.7289 53.8767 39.9524 54.6833 38.0302 55.3296C36.0544 55.994 34.092 55.9929 32.0908 55.9944C23.9889 56.0002 15.8869 55.9988 7.69357 56ZM31.789 13.2349C30.8987 13.4369 29.9887 13.5777 29.1227 13.8555C27.9282 14.2387 26.78 14.7668 25.5843 15.1454C25.1505 15.2828 24.5884 15.3015 24.1682 15.1473C21.9411 14.3305 19.7176 13.6139 17.3615 13.1472C14.3696 12.5544 11.3753 12.7875 8.39189 12.5341C6.68835 12.3894 4.95303 12.6204 3.23192 12.6792C2.96898 12.6882 2.70547 12.6805 2.43106 12.6805C2.43106 17.5843 2.43106 22.3951 2.43106 27.206C3.94812 21.7498 7.51782 18.4598 13.0833 17.8642C18.3982 17.2955 22.4273 20.0564 24.725 24.2616C25.6349 23.1698 26.4918 21.9774 27.5141 20.9494C29.5702 18.8819 32.2052 17.9728 35.0373 17.8326C38.1134 17.6802 40.87 18.6764 43.2292 20.73C44.6705 21.9846 45.7028 23.4932 46.4519 25.2357C47.1843 26.9391 47.1971 28.7249 47.1719 30.5216C47.1377 32.9595 46.1882 35.0668 44.7157 36.941C43.2811 38.7671 41.4067 40.0154 39.168 40.6359C36.6906 41.3226 34.182 41.1806 31.7109 40.5963C31.1689 40.4682 30.8832 40.5491 30.5428 40.9063C28.9871 42.5389 27.427 44.1674 25.8513 45.7806C24.9462 46.7073 24.7375 46.6953 23.8591 45.7512C22.4169 44.2011 21.0036 42.6232 19.533 41.1007C19.0995 40.6518 18.5819 40.3809 17.8186 40.6362C16.8787 40.9506 15.8627 41.1075 14.8688 41.1761C12.8037 41.3186 10.792 41.1128 8.90738 40.0987C6.57361 38.8429 4.75457 37.0874 3.56095 34.7346C3.08797 33.8023 2.82527 32.7633 2.44399 31.7098C2.44399 39.0562 2.44399 46.3209 2.44399 53.6235C2.79721 53.6235 3.09785 53.6235 3.39849 53.6235C13.4485 53.6236 23.4985 53.645 33.5484 53.6084C36.0285 53.5994 38.388 53.0092 40.4975 51.6036C42.1566 50.498 43.6121 49.1849 44.7985 47.5809C46.6642 45.0583 47.342 42.1605 47.3516 39.093C47.3778 30.6878 47.3609 22.2824 47.3602 13.877C47.3601 12.6809 47.3575 12.6589 46.1697 12.6844C41.4275 12.7864 36.6634 12.3254 31.789 13.2349ZM29.3493 5.18421C23.9635 1.6458 17.2616 5.62184 16.5832 10.545C16.6815 10.5842 16.7884 10.667 16.8911 10.6621C19.3266 10.5445 21.5214 11.4095 23.7198 12.2914C24.3531 12.5455 24.978 12.8044 25.7363 12.4714C28.0638 11.4493 30.4805 10.7212 33.1177 10.6032C32.841 8.15926 31.4749 6.49668 29.3493 5.18421ZM15.869 26.5354C15.4936 27.8391 14.5314 28.5139 13.286 28.7454C11.9626 28.9914 11.0625 28.0576 10.1242 27.3349C8.87278 28.9835 9.48587 32.4308 11.5484 34.2127C13.2844 35.7124 16.6254 36.2325 18.4596 34.8583C20.6865 33.1899 22.0104 30.6198 20.6706 26.989C20.1023 25.4488 17.1292 23.6497 15.6554 23.9122C15.7425 24.7406 15.8288 25.5628 15.869 26.5354ZM36.4617 35.1633C39.3928 33.9609 40.8437 31.1898 39.9837 28.0025C39.3569 25.6797 36.8048 23.6544 34.5739 23.9534C34.9701 26.0046 35.3466 27.1194 33.4476 28.2931C32.2189 29.0525 31.2929 29.1478 28.9528 27.3632C27.671 30.6751 29.2561 34.455 32.8008 35.4906C33.996 35.8397 35.1974 35.8635 36.4617 35.1633ZM23.4046 42.191C23.9187 42.6469 24.4328 43.1028 24.9383 43.5511C25.519 43.0476 26.1012 42.5729 26.6482 42.0607C27.2458 41.5012 27.8315 40.9255 28.3778 40.3167C28.5417 40.134 28.6998 39.7476 28.6154 39.5733C28.1266 38.5645 25.6206 37.5972 24.5058 37.7921C22.9804 38.0587 21.7447 38.7107 20.8584 40.0863C21.6499 40.7448 22.473 41.4295 23.4046 42.191ZM24.3324 36.0736C24.7932 36.0736 25.254 36.0736 25.7555 36.0736C25.4325 35.5868 25.1674 35.1873 24.7859 34.6124C24.5519 35.1656 24.3695 35.5967 24.3324 36.0736Z" fill="white"/>
<path d="M22 14L25 15L28 14L32.5 13L38 12.5H47.5V36V40C47.4074 41.1561 47.3294 41.8081 47 43C46.6273 44.0659 46.4092 44.618 46 45.5C45.5796 46.6314 45.222 47.1513 44.5 48C43.8282 48.9102 43.3875 49.3444 42.5 50C41.4937 50.7443 40.8543 51.179 39.5 52C37.8532 53.0744 36.8313 53.3674 34.8842 53.5H2.5V12.5L12 12L17.5 12.5L22 14Z" stroke="white" stroke-width="3.5"/>
<rect x="24" y="33" width="3" height="4" fill="white"/>
<path d="M17 37L25 46.5L33 37" stroke="white" stroke-width="3"/>
</svg>
