<svg width="1280" height="129" viewBox="0 0 1280 129" fill="none" xmlns="http://www.w3.org/2000/svg">
<mask id="path-1-inside-1_2_31" fill="white">
<path d="M1 44L0 45V129H1280V45L1276 46L1273 47L1270 48L1266 49L1263 50L1260 51L1257 52L1254 53L1250 54L1246 55L1243 56L1239 57L1236 58L1232 59L1228 60L1224 61L1220 62L1215 63L1210 64L1206 65L1202 66L1197 67L1192 68L1187 69L1182 70L1177 71L1172 72L1166 73L1160 74L1154 75L1148 76L1141 77L1134 78L1127 79L1120 80L1112 81L1104 82L1094 83L1083 84L1070 86L1058 87L1043 88L1017 89L962 90L927 89L907 88L889 87L876 86L862 85L853 84L842 83L834 82L825 81L817 80L809 79L802 78L795 77L789 76L782 75L776 74L769 73L764 72L759 71L753 70L747 69L741 68L736 67L731 66L726 65L721 64L716 63L711 62L706 61L702 60L698 59L693 58L688 57L684 56L679 55L675 54L671 53L667 52L663 51L659 50L655 49L651 48L647 47L643 46L639 45L635 44L631 43L628 42L624 41L620 40L616 39L611 38L607 37L603 36L599 35L595 34L590 33L587 32L581 31L577 30L572 29L568 28L564 27L559 26L554 25L549 24L543 23L536 22L530 21L525 20L519 19L513 18L507 17L501 16L495 15L488 14L481 13L475 12L466 11L458 10L451 9L441 8L432 7L421 6L411 5L399 4L385 3L366 2L343 1L281 0L254 1L234 2L219 3L207 4L197 5L187 6L177 7L168 8L160 9L152 10L145 11L139 12L132 13L126 14L120 15L114 16L109 17L103 18L98 19L93 20L88 21L83 22L78 23L74 24L69 25L65 26L61 27L57 28L53 29L49 30L45 31L41 32L37 33L33 34L30 35L27 36L23 37L20 38L16 39L13 40L10 41L7 42L4 43L1 44Z"/>
</mask>
<path d="M1 44L0 45V129H1280V45L1276 46L1273 47L1270 48L1266 49L1263 50L1260 51L1257 52L1254 53L1250 54L1246 55L1243 56L1239 57L1236 58L1232 59L1228 60L1224 61L1220 62L1215 63L1210 64L1206 65L1202 66L1197 67L1192 68L1187 69L1182 70L1177 71L1172 72L1166 73L1160 74L1154 75L1148 76L1141 77L1134 78L1127 79L1120 80L1112 81L1104 82L1094 83L1083 84L1070 86L1058 87L1043 88L1017 89L962 90L927 89L907 88L889 87L876 86L862 85L853 84L842 83L834 82L825 81L817 80L809 79L802 78L795 77L789 76L782 75L776 74L769 73L764 72L759 71L753 70L747 69L741 68L736 67L731 66L726 65L721 64L716 63L711 62L706 61L702 60L698 59L693 58L688 57L684 56L679 55L675 54L671 53L667 52L663 51L659 50L655 49L651 48L647 47L643 46L639 45L635 44L631 43L628 42L624 41L620 40L616 39L611 38L607 37L603 36L599 35L595 34L590 33L587 32L581 31L577 30L572 29L568 28L564 27L559 26L554 25L549 24L543 23L536 22L530 21L525 20L519 19L513 18L507 17L501 16L495 15L488 14L481 13L475 12L466 11L458 10L451 9L441 8L432 7L421 6L411 5L399 4L385 3L366 2L343 1L281 0L254 1L234 2L219 3L207 4L197 5L187 6L177 7L168 8L160 9L152 10L145 11L139 12L132 13L126 14L120 15L114 16L109 17L103 18L98 19L93 20L88 21L83 22L78 23L74 24L69 25L65 26L61 27L57 28L53 29L49 30L45 31L41 32L37 33L33 34L30 35L27 36L23 37L20 38L16 39L13 40L10 41L7 42L4 43L1 44Z" stroke="url(#paint0_linear_2_31)" stroke-width="1998" mask="url(#path-1-inside-1_2_31)"/>
<defs>
<linearGradient id="paint0_linear_2_31" x1="640" y1="129" x2="640" y2="5.24426e-06" gradientUnits="userSpaceOnUse">
<stop offset="0.0159883" stop-color="#D70015"/>
<stop offset="1" stop-color="#FFB340"/>
</linearGradient>
</defs>
</svg>
